<svg width="32" height="32" viewBox="0 0 32 32" fill="none" xmlns="http://www.w3.org/2000/svg">
<path d="M17.4861 27.4489H2.66699C2.66699 23.1842 5.98355 19.7275 10.0768 19.7275C14.17 19.7275 17.4861 23.1838 17.4861 27.4489Z" stroke="black" stroke-width="1.2" stroke-miterlimit="10" stroke-linecap="round" stroke-linejoin="round"/>
<path d="M13.3306 15.6139C13.3306 17.4847 11.8759 19.7312 10.0807 19.7312C9.59346 19.7312 9.13287 19.5644 8.71897 19.286C8.36444 19.0478 8.0528 18.7465 7.79825 18.396L7.77824 18.3751C7.18428 17.582 6.82373 16.5525 6.82373 15.6139C6.82373 14.7137 7.16688 13.8504 7.77768 13.2138C8.38848 12.5773 9.21691 12.2197 10.0807 12.2197C11.8759 12.2197 13.3306 13.7431 13.3306 15.6139Z" stroke="black" stroke-width="1.2" stroke-miterlimit="10" stroke-linecap="round" stroke-linejoin="round"/>
<path d="M24.1358 6.78906C23.2691 6.15305 22.2122 5.77957 21.0716 5.77957C20.3643 5.77957 19.6893 5.92318 19.0718 6.18393" stroke="black" stroke-width="0.8" stroke-miterlimit="10" stroke-linecap="round" stroke-linejoin="round"/>
<path d="M25.2866 14.728C25.9845 13.7891 26.3998 12.6107 26.3998 11.3312C26.3998 10.1843 26.0661 9.11857 25.4943 8.2338" stroke="black" stroke-width="0.8" stroke-miterlimit="10" stroke-linecap="round" stroke-linejoin="round"/>
<path d="M16.8554 7.93732C16.1575 8.87621 15.7422 10.0546 15.7422 11.3341C15.7422 14.4005 18.1276 16.8862 21.0702 16.8862C21.7774 16.8862 22.4525 16.7426 23.07 16.4819" stroke="black" stroke-width="0.8" stroke-miterlimit="10" stroke-linecap="round" stroke-linejoin="round"/>
<path d="M21.0708 7.65764C20.0921 7.65764 19.2959 8.48737 19.2959 9.50724V10.1309H20.1834V9.50724C20.1834 8.9973 20.5815 8.58245 21.0708 8.58245C21.5602 8.58245 21.9583 8.9973 21.9583 9.50724V10.1309H22.8458V9.50724C22.8458 8.48737 22.0495 7.65764 21.0708 7.65764Z" stroke="black" stroke-width="0.8" stroke-miterlimit="10" stroke-linecap="round" stroke-linejoin="round"/>
<path d="M21.6831 11.6953C21.6831 11.3426 21.4087 11.0567 21.0703 11.0567C20.7319 11.0567 20.4575 11.3426 20.4575 11.6953C20.4575 11.8717 20.5262 12.0314 20.6371 12.1469V12.9065C20.6371 13.1558 20.8311 13.3579 21.0703 13.3579C21.3095 13.3579 21.5035 13.1558 21.5035 12.9065V12.1469C21.6144 12.0314 21.6831 11.8717 21.6831 11.6953Z" stroke="black" stroke-width="0.8" stroke-miterlimit="10" stroke-linecap="round" stroke-linejoin="round"/>
<path d="M22.7576 10.1324H19.3861C19.0731 10.1324 18.8193 10.3968 18.8193 10.7229V13.6946C18.8193 14.0207 19.0731 14.2852 19.3861 14.2852H22.7576C23.0706 14.2852 23.3243 14.0207 23.3243 13.6946V10.7229C23.3243 10.3968 23.0706 10.1324 22.7576 10.1324Z" stroke="black" stroke-width="0.8" stroke-miterlimit="10" stroke-linecap="round" stroke-linejoin="round"/>
<path d="M17.8701 7.43495C17.8701 7.78396 17.5986 8.06689 17.2637 8.06689C16.9287 8.06689 16.6572 7.78396 16.6572 7.43495C16.6572 7.08593 16.9287 6.803 17.2637 6.803C17.5986 6.803 17.8701 7.08593 17.8701 7.43495Z" stroke="black" stroke-width="0.8" stroke-miterlimit="10" stroke-linecap="round" stroke-linejoin="round"/>
<path d="M24.271 15.2299C24.271 14.8809 24.5425 14.5979 24.8774 14.5979C25.2124 14.5979 25.4839 14.8809 25.4839 15.2299C25.4839 15.5789 25.2124 15.8618 24.8774 15.8618C24.5425 15.8618 24.271 15.5789 24.271 15.2299Z" stroke="black" stroke-width="0.8" stroke-miterlimit="10" stroke-linecap="round" stroke-linejoin="round"/>
</svg>
