<svg width="32" height="32" viewBox="0 0 32 32" fill="none" xmlns="http://www.w3.org/2000/svg">
<path d="M23.1303 6.04346H8.76807" stroke="black" stroke-width="0.846491" stroke-miterlimit="10" stroke-linecap="round" stroke-linejoin="round"/>
<path d="M29.9999 11.2275H26.7202" stroke="black" stroke-width="0.846491" stroke-miterlimit="10" stroke-linecap="round" stroke-linejoin="round"/>
<path d="M26.9838 11.2275L2.13818 11.2275" stroke="black" stroke-width="0.846491" stroke-miterlimit="10" stroke-linecap="round" stroke-linejoin="round"/>
<path d="M7.96269 8.1402C7.51783 8.1402 7.15723 7.77959 7.15723 7.33473V4.63798C7.15723 4.19312 7.51783 3.83252 7.96269 3.83252C8.40755 3.83252 8.76816 4.19312 8.76816 4.63798V7.33479C8.76816 7.77959 8.40755 8.1402 7.96269 8.1402Z" stroke="black" stroke-width="0.846491" stroke-miterlimit="10" stroke-linecap="round" stroke-linejoin="round"/>
<path d="M24.1448 8.1402C24.5897 8.1402 24.9503 7.77959 24.9503 7.33473V4.63798C24.9503 4.19312 24.5897 3.83252 24.1448 3.83252C23.7 3.83252 23.3394 4.19312 23.3394 4.63798V7.33479C23.3394 7.77959 23.7 8.1402 24.1448 8.1402Z" stroke="black" stroke-width="0.846491" stroke-miterlimit="10" stroke-linecap="round" stroke-linejoin="round"/>
<path d="M16.8597 16.4198H15.1397C15.0083 16.4198 14.9019 16.3133 14.9019 16.182V14.4619C14.9019 14.3306 15.0083 14.2241 15.1397 14.2241H16.8597C16.9911 14.2241 17.0975 14.3306 17.0975 14.4619V16.182C17.0975 16.3133 16.9911 16.4198 16.8597 16.4198Z" stroke="black" stroke-width="0.846491" stroke-miterlimit="10" stroke-linecap="round" stroke-linejoin="round"/>
<path d="M12.0629 14.2241H10.3428C10.2115 14.2241 10.105 14.3306 10.105 14.4619V16.182C10.105 16.3133 10.2115 16.4198 10.3428 16.4198H12.0629C12.1942 16.4198 12.3007 16.3133 12.3007 16.182V14.4619C12.3007 14.3306 12.1942 14.2241 12.0629 14.2241Z" stroke="black" stroke-width="0.846491" stroke-miterlimit="10" stroke-linecap="round" stroke-linejoin="round"/>
<path d="M7.26549 14.2241H5.54542C5.41411 14.2241 5.30762 14.3306 5.30762 14.4619V16.182C5.30762 16.3133 5.41411 16.4198 5.54542 16.4198H7.26549C7.39681 16.4198 7.5033 16.3133 7.5033 16.182V14.4619C7.5033 14.3306 7.39681 14.2241 7.26549 14.2241Z" stroke="black" stroke-width="0.846491" stroke-miterlimit="10" stroke-linecap="round" stroke-linejoin="round"/>
<path d="M19.937 14.2241H21.6571C21.7884 14.2241 21.8949 14.3306 21.8949 14.4619V16.182C21.8949 16.3133 21.7884 16.4198 21.6571 16.4198H19.937C19.8057 16.4198 19.6992 16.3133 19.6992 16.182V14.4619C19.6992 14.3306 19.8057 14.2241 19.937 14.2241Z" stroke="black" stroke-width="0.846491" stroke-miterlimit="10" stroke-linecap="round" stroke-linejoin="round"/>
<path d="M24.7344 14.2241H26.4545C26.5858 14.2241 26.6923 14.3306 26.6923 14.4619V16.182C26.6923 16.3133 26.5858 16.4198 26.4545 16.4198H24.7344C24.6031 16.4198 24.4966 16.3133 24.4966 16.182V14.4619C24.4966 14.3306 24.6031 14.2241 24.7344 14.2241Z" stroke="black" stroke-width="0.846491" stroke-miterlimit="10" stroke-linecap="round" stroke-linejoin="round"/>
<path d="M16.8597 20.9266H15.1397C15.0083 20.9266 14.9019 20.8202 14.9019 20.6888V18.9688C14.9019 18.8374 15.0083 18.731 15.1397 18.731H16.8597C16.9911 18.731 17.0975 18.8374 17.0975 18.9688V20.6888C17.0975 20.8202 16.9911 20.9266 16.8597 20.9266Z" stroke="black" stroke-width="0.846491" stroke-miterlimit="10" stroke-linecap="round" stroke-linejoin="round"/>
<path d="M7.26549 18.731H5.54542C5.41411 18.731 5.30762 18.8374 5.30762 18.9688V20.6888C5.30762 20.8202 5.41411 20.9266 5.54542 20.9266H7.26549C7.39681 20.9266 7.5033 20.8202 7.5033 20.6888V18.9688C7.5033 18.8374 7.39681 18.731 7.26549 18.731Z" stroke="black" stroke-width="0.846491" stroke-miterlimit="10" stroke-linecap="round" stroke-linejoin="round"/>
<path d="M19.937 18.731H21.6571C21.7884 18.731 21.8949 18.8374 21.8949 18.9688V20.6888C21.8949 20.8202 21.7884 20.9266 21.6571 20.9266H19.937C19.8057 20.9266 19.6992 20.8202 19.6992 20.6888V18.9688C19.6992 18.8374 19.8057 18.731 19.937 18.731Z" stroke="black" stroke-width="0.846491" stroke-miterlimit="10" stroke-linecap="round" stroke-linejoin="round"/>
<path d="M24.7344 18.731H26.4545C26.5858 18.731 26.6923 18.8374 26.6923 18.9688V20.6888C26.6923 20.8202 26.5858 20.9266 26.4545 20.9266H24.7344C24.6031 20.9266 24.4966 20.8202 24.4966 20.6888V18.9688C24.4966 18.8374 24.6031 18.731 24.7344 18.731Z" stroke="black" stroke-width="0.846491" stroke-miterlimit="10" stroke-linecap="round" stroke-linejoin="round"/>
<path d="M16.8597 25.4335H15.1397C15.0083 25.4335 14.9019 25.327 14.9019 25.1957V23.4756C14.9019 23.3443 15.0083 23.2378 15.1397 23.2378H16.8597C16.9911 23.2378 17.0975 23.3443 17.0975 23.4756V25.1957C17.0975 25.327 16.9911 25.4335 16.8597 25.4335Z" stroke="black" stroke-width="0.846491" stroke-miterlimit="10" stroke-linecap="round" stroke-linejoin="round"/>
<path d="M12.0629 23.2378H10.3428C10.2115 23.2378 10.105 23.3443 10.105 23.4756V25.1957C10.105 25.327 10.2115 25.4335 10.3428 25.4335H12.0629C12.1942 25.4335 12.3007 25.327 12.3007 25.1957V23.4756C12.3007 23.3442 12.1942 23.2378 12.0629 23.2378Z" stroke="black" stroke-width="0.846491" stroke-miterlimit="10" stroke-linecap="round" stroke-linejoin="round"/>
<path d="M7.26549 23.2378H5.54542C5.41411 23.2378 5.30762 23.3443 5.30762 23.4756V25.1957C5.30762 25.327 5.41411 25.4335 5.54542 25.4335H7.26549C7.39681 25.4335 7.5033 25.327 7.5033 25.1957V23.4756C7.5033 23.3442 7.39681 23.2378 7.26549 23.2378Z" stroke="black" stroke-width="0.846491" stroke-miterlimit="10" stroke-linecap="round" stroke-linejoin="round"/>
<path d="M19.937 23.2378H21.6571C21.7884 23.2378 21.8949 23.3443 21.8949 23.4756V25.1957C21.8949 25.327 21.7884 25.4335 21.6571 25.4335H19.937C19.8057 25.4335 19.6992 25.327 19.6992 25.1957V23.4756C19.6992 23.3442 19.8057 23.2378 19.937 23.2378Z" stroke="black" stroke-width="0.846491" stroke-miterlimit="10" stroke-linecap="round" stroke-linejoin="round"/>
<path d="M10.2793 20.4946L10.8137 20.9266L12.6753 18.731" stroke="black" stroke-width="0.846491" stroke-miterlimit="10" stroke-linecap="round" stroke-linejoin="round"/>
<path d="M24.3965 24.7514L24.9308 25.1834L26.7925 22.9878" stroke="black" stroke-width="0.846491" stroke-miterlimit="10" stroke-linecap="round" stroke-linejoin="round"/>
<path d="M7.15716 6.04346H3.97994C2.88645 6.04346 2 6.9299 2 8.0234V16.2689" stroke="black" stroke-width="0.846491" stroke-miterlimit="10" stroke-linecap="round" stroke-linejoin="round"/>
<path d="M8.86426 28.1679H28.0198C29.1133 28.1679 29.9998 27.2814 29.9998 26.1879V8.0234C29.9998 6.9299 29.1133 6.04346 28.0198 6.04346H24.9501" stroke="black" stroke-width="0.846491" stroke-miterlimit="10" stroke-linecap="round" stroke-linejoin="round"/>
<path d="M2 15.4932V26.1878C2 27.2813 2.88645 28.1677 3.97994 28.1677H9.81214" stroke="black" stroke-width="0.846491" stroke-miterlimit="10" stroke-linecap="round" stroke-linejoin="round"/>
</svg>
