<svg width="32" height="32" viewBox="0 0 32 32" fill="none" xmlns="http://www.w3.org/2000/svg">
<path d="M21.3141 27.1812H12.0195C10.7362 27.1812 9.6958 28.2215 9.6958 29.5048V30.6666H23.6377V29.5048C23.6377 28.2215 22.5974 27.1812 21.3141 27.1812Z" stroke="black" stroke-width="1.2" stroke-miterlimit="10" stroke-linecap="round" stroke-linejoin="round"/>
<path d="M28.9243 2.6665H4.40973C3.44722 2.6665 2.66699 3.44673 2.66699 4.40924V21.8366C2.66699 22.7991 3.44722 23.5794 4.40973 23.5794H28.9243C29.8868 23.5794 30.667 22.7991 30.667 21.8366V4.40924C30.667 3.44673 29.8868 2.6665 28.9243 2.6665Z" stroke="black" stroke-width="1.2" stroke-miterlimit="10" stroke-linecap="round" stroke-linejoin="round"/>
<path d="M20.1523 23.5791H13.1814L12.0195 27.1808H21.3141L20.1523 23.5791Z" stroke="black" stroke-width="1.2" stroke-miterlimit="10" stroke-linecap="round" stroke-linejoin="round"/>
<path d="M16.6667 16.6088C19.5542 16.6088 21.8949 14.268 21.8949 11.3806C21.8949 8.4931 19.5542 6.15234 16.6667 6.15234C13.7792 6.15234 11.4385 8.4931 11.4385 11.3806C11.4385 14.268 13.7792 16.6088 16.6667 16.6088Z" stroke="black" stroke-width="1.2" stroke-miterlimit="10" stroke-linecap="round" stroke-linejoin="round"/>
<path d="M16.6671 13.1232C17.6295 13.1232 18.4098 12.3429 18.4098 11.3804C18.4098 10.4179 17.6295 9.6377 16.6671 9.6377C15.7046 9.6377 14.9243 10.4179 14.9243 11.3804C14.9243 12.3429 15.7046 13.1232 16.6671 13.1232Z" stroke="black" stroke-width="1.2" stroke-miterlimit="10" stroke-linecap="round" stroke-linejoin="round"/>
<path d="M16.667 16.6089V20.0944" stroke="black" stroke-width="1.2" stroke-miterlimit="10" stroke-linecap="round" stroke-linejoin="round"/>
<path d="M14.3433 20.0942H18.9906" stroke="black" stroke-width="1.2" stroke-miterlimit="10" stroke-linecap="round" stroke-linejoin="round"/>
</svg>
