<svg width="32" height="32" viewBox="0 0 32 32" fill="none" xmlns="http://www.w3.org/2000/svg">
<path d="M21.7907 9.269L21.256 9.87272C20.8428 10.2859 20.3164 10.5673 19.7433 10.6813C19.1702 10.7953 18.5761 10.7368 18.0363 10.5132C17.4964 10.2896 17.035 9.91087 16.7103 9.42501C16.3857 8.93914 16.2124 8.36792 16.2124 7.78358C16.2124 7.19924 16.3857 6.62802 16.7103 6.14216C17.035 5.6563 17.4964 5.27762 18.0363 5.054C18.5761 4.83038 19.1702 4.77187 19.7433 4.88587C20.3164 4.99987 20.8428 5.28126 21.256 5.69445L24.9564 9.87272C25.3696 10.2859 25.896 10.5673 26.4691 10.6813C27.0422 10.7953 27.6363 10.7368 28.1761 10.5132C28.716 10.2896 29.1774 9.91087 29.5021 9.42501C29.8267 8.93914 30 8.36792 30 7.78358C30 7.19924 29.8267 6.62802 29.5021 6.14216C29.1774 5.6563 28.716 5.27762 28.1761 5.054C27.6363 4.83038 27.0422 4.77187 26.4691 4.88587C25.896 4.99987 25.3696 5.28126 24.9564 5.69445L24.4217 6.29816" stroke="black" stroke-width="1.5" stroke-linecap="round" stroke-linejoin="round"/>
<path d="M14.8164 15.1346C14.8164 17.9759 12.5131 20.2793 9.67164 20.2793C6.83009 20.2793 4.52686 17.9759 4.52686 15.1346C4.52686 12.2933 6.83009 9.98988 9.67164 9.98988C12.5131 9.98988 14.8164 12.2933 14.8164 15.1346Z" stroke="black" stroke-width="1.5" stroke-miterlimit="10" stroke-linecap="round" stroke-linejoin="round"/>
<path d="M2 27.1713C2.41147 23.2966 5.69001 20.2783 9.67372 20.2783C13.6575 20.2783 16.936 23.2968 17.3473 27.1714" stroke="black" stroke-width="1.5" stroke-miterlimit="10" stroke-linecap="round" stroke-linejoin="round"/>
</svg>
