<svg width="32" height="32" viewBox="0 0 32 32" fill="none" xmlns="http://www.w3.org/2000/svg">
<path d="M7.71368 14.7575C4.24869 13.8967 2 12.5097 2 10.9453V21.9976C2 23.5369 4.17703 24.9043 7.54765 25.7679C7.86422 25.849 8.17244 25.6088 8.17244 25.2819V15.3413C8.17244 15.0642 7.98258 14.8243 7.71368 14.7575Z" stroke="black" stroke-miterlimit="10" stroke-linecap="round" stroke-linejoin="round"/>
<path d="M16 6.21582C8.26799 6.21582 2 8.33313 2 10.945V21.9972C2 19.9901 5.70166 18.2753 10.9244 17.5887V16.9814C10.9244 15.6036 12.0414 14.4866 13.4192 14.4866C13.6048 14.4866 17.0343 14.4866 17.1734 14.4866C18.2555 14.4866 18.5325 15.0419 18.6419 15.6014C18.7069 15.9336 19.0165 16.1458 19.3541 16.1198C19.9378 16.075 20.525 16.5642 20.525 17.2374C20.525 17.3131 20.525 17.4097 20.525 17.5207C26.0364 18.1563 30 19.9203 30 21.9972V10.945C29.9999 8.33313 23.7319 6.21582 16 6.21582Z" stroke="black" stroke-miterlimit="10" stroke-linecap="round" stroke-linejoin="round"/>
<path d="M11.2646 9.61103C11.3428 9.14946 11.7445 8.79785 12.2283 8.79785C12.7681 8.79785 13.2057 9.23548 13.2057 9.77526C13.2057 10.315 12.7681 10.7527 12.2283 10.7527" stroke="black" stroke-miterlimit="10" stroke-linecap="round" stroke-linejoin="round"/>
<path d="M11.2646 11.8936C11.3428 12.3552 11.7445 12.7068 12.2283 12.7068C12.7681 12.7068 13.2057 12.2691 13.2057 11.7294C13.2057 11.1896 12.7681 10.752 12.2283 10.752" stroke="black" stroke-miterlimit="10" stroke-linecap="round" stroke-linejoin="round"/>
<path d="M15.614 12.7075C16.2788 12.7075 16.8178 12.1685 16.8178 11.5036C16.8178 10.8388 16.2788 10.2998 15.614 10.2998C14.9491 10.2998 14.4102 10.8388 14.4102 11.5036C14.4102 12.1685 14.9491 12.7075 15.614 12.7075Z" stroke="black" stroke-miterlimit="10" stroke-linecap="round" stroke-linejoin="round"/>
<path d="M15.9718 8.79736C15.9718 8.79736 14.4102 9.57595 14.4102 11.5033" stroke="black" stroke-miterlimit="10" stroke-linecap="round" stroke-linejoin="round"/>
<path d="M19.1127 8.79736C18.4985 8.79736 18.0005 9.29533 18.0005 9.90959V11.5948C18.0005 12.2091 18.4985 12.707 19.1127 12.707C19.727 12.707 20.2249 12.2091 20.2249 11.5948V9.90953C20.2249 9.29528 19.727 8.79736 19.1127 8.79736Z" stroke="black" stroke-miterlimit="10" stroke-linecap="round" stroke-linejoin="round"/>
<path d="M22.7897 10.6643C23.3318 10.6643 23.7713 10.2249 23.7713 9.68275C23.7713 9.14064 23.3318 8.70117 22.7897 8.70117C22.2476 8.70117 21.8081 9.14064 21.8081 9.68275C21.8081 10.2249 22.2476 10.6643 22.7897 10.6643Z" stroke="black" stroke-miterlimit="10" stroke-linecap="round" stroke-linejoin="round"/>
<path d="M28.6206 24.0463C29.5041 23.4264 30.0001 22.7317 30.0001 21.9976V10.9453C30.0001 12.5097 27.7514 13.8967 24.2864 14.7576C24.0175 14.8244 23.8276 15.0642 23.8276 15.3413V25.282C23.8276 25.6088 24.1359 25.8491 24.4524 25.768C25.3739 25.768 27.9771 24.5577 28.5614 24.1017" stroke="black" stroke-miterlimit="10" stroke-linecap="round" stroke-linejoin="round"/>
</svg>
