<svg width="32" height="32" viewBox="0 0 32 32" fill="none" xmlns="http://www.w3.org/2000/svg">
<path d="M18.6138 26.5146H11.062L12.2238 23.0292H17.452L18.6138 26.5146Z" stroke="black" stroke-width="1.2" stroke-miterlimit="10" stroke-linecap="round" stroke-linejoin="round"/>
<path d="M19.4854 26.5146H10.191C9.22851 26.5146 8.44824 27.2948 8.44824 28.2573V30H21.2282V28.2573C21.2282 27.2948 20.4479 26.5146 19.4854 26.5146Z" stroke="black" stroke-width="1.2" stroke-miterlimit="10" stroke-linecap="round" stroke-linejoin="round"/>
<path d="M20.7051 12.4561H29.9996" stroke="black" stroke-width="1.2" stroke-miterlimit="10" stroke-linecap="round" stroke-linejoin="round"/>
<path d="M2 20.7057C2 21.989 3.04034 23.0293 4.32362 23.0293H25.3524C26.6357 23.0293 27.676 21.989 27.676 20.7057V19.5439H2V20.7057Z" stroke="black" stroke-width="1.2" stroke-miterlimit="10" stroke-linecap="round" stroke-linejoin="round"/>
<path d="M20.7052 4.44041H4.32362C3.04034 4.44041 2 5.48075 2 6.76403V19.5439H27.676V15.9423" stroke="black" stroke-width="1.2" stroke-miterlimit="10" stroke-linecap="round" stroke-linejoin="round"/>
<path d="M28.8378 15.9419H21.8669C21.2252 15.9419 20.7051 15.4218 20.7051 14.7801V3.16198C20.7051 2.52031 21.2252 2.00017 21.8669 2.00017H28.8378C29.4794 2.00017 29.9996 2.52031 29.9996 3.16198V14.7801C29.9996 15.4218 29.4794 15.9419 28.8378 15.9419Z" stroke="black" stroke-width="1.2" stroke-miterlimit="10" stroke-linecap="round" stroke-linejoin="round"/>
<path d="M8.5059 11.1206L6.76318 9.37789L8.5059 7.63517" stroke="black" stroke-width="1.2" stroke-miterlimit="10" stroke-linecap="round" stroke-linejoin="round"/>
<path d="M6.76318 9.37744H14.8959" stroke="black" stroke-width="1.2" stroke-miterlimit="10" stroke-linecap="round" stroke-linejoin="round"/>
<path d="M14.3149 12.8632L16.0577 14.6059L14.3149 16.3486" stroke="black" stroke-width="1.2" stroke-miterlimit="10" stroke-linecap="round" stroke-linejoin="round"/>
<path d="M16.058 14.606H7.92529" stroke="black" stroke-width="1.2" stroke-miterlimit="10" stroke-linecap="round" stroke-linejoin="round"/>
</svg>
