<svg width="32" height="32" viewBox="0 0 32 32" fill="none" xmlns="http://www.w3.org/2000/svg">
<path d="M6.33301 7.10256C6.33301 4.83679 8.16979 3 10.4356 3H19.675C20.3122 3 20.9231 3.25411 21.3723 3.70602L24.4701 6.82243L25.5418 8.00441C25.941 8.44465 26.1621 9.01764 26.1621 9.6119V25.5641C26.1621 27.8299 24.3253 29.6667 22.0595 29.6667H10.4356C8.16979 29.6667 6.33301 27.8299 6.33301 25.5641V7.10256Z" stroke="black" stroke-width="1.3"/>
<path d="M20.3501 3.3418V7.78624C20.3501 8.91913 21.2685 9.83752 22.4014 9.83752H26.1621" stroke="black" stroke-width="1.3"/>
<path d="M10.0938 14.2822H22.0596M10.0938 10.5215H17.957M10.0938 18.0429H13.1707M10.0938 21.8035H12.4869M10.0938 25.5642H13.1707" stroke="black" stroke-width="1.3" stroke-linecap="round"/>
<path d="M16.9312 22.439L17.7863 23.1496C18.0396 23.3601 18.407 23.3601 18.6603 23.1496L20.6918 21.4614" stroke="black" stroke-width="1.3" stroke-linecap="round" stroke-linejoin="round"/>
<path d="M18.8115 25.906C20.9829 25.906 22.7431 24.1457 22.7431 21.9743C22.7431 19.803 20.9829 18.0427 18.8115 18.0427C16.6401 18.0427 14.8799 19.803 14.8799 21.9743C14.8799 24.1457 16.6401 25.906 18.8115 25.906Z" stroke="black" stroke-width="1.3"/>
</svg>
