<svg width="32" height="32" viewBox="0 0 32 32" fill="none" xmlns="http://www.w3.org/2000/svg">
<mask id="mask0_20204_28933" style="mask-type:luminance" maskUnits="userSpaceOnUse" x="2" y="2" width="28" height="28">
<path d="M2 2H30V30H2V2Z" fill="white"/>
</mask>
<g mask="url(#mask0_20204_28933)">
<path d="M8.01562 18.5156L3.46563 11.0502C2.88539 10.1818 2.54688 9.13836 2.54688 8.01563C2.54688 4.99524 4.99523 2.54688 8.01562 2.54688C11.036 2.54688 13.4844 4.99524 13.4844 8.01563C13.4844 9.13836 13.1459 10.1818 12.5656 11.0502L8.01562 18.5156Z" stroke="black" stroke-width="1.3" stroke-miterlimit="10" stroke-linecap="round" stroke-linejoin="round"/>
<path d="M10.2031 8.01514C10.2031 9.22318 9.22367 10.2026 8.01562 10.2026C6.80758 10.2026 5.82812 9.22318 5.82812 8.01514C5.82812 6.80709 6.80758 5.82764 8.01562 5.82764C9.22367 5.82764 10.2031 6.80709 10.2031 8.01514Z" stroke="black" stroke-width="1.3" stroke-miterlimit="10" stroke-linecap="round" stroke-linejoin="round"/>
<path d="M23.9844 27.2656C24.5887 27.2656 25.0781 27.7556 25.0781 28.3594C25.0781 28.9637 24.5887 29.4531 23.9844 29.4531C23.3801 29.4531 22.8906 28.9637 22.8906 28.3594C22.8906 27.7556 23.3801 27.2656 23.9844 27.2656Z" stroke="black" stroke-width="1.3" stroke-miterlimit="10" stroke-linecap="round" stroke-linejoin="round"/>
<path d="M23.9844 27.2651L19.4344 20.1279C18.8541 19.2594 18.5156 18.216 18.5156 17.0933C18.5156 14.0729 20.964 11.6245 23.9844 11.6245C27.0048 11.6245 29.4531 14.0729 29.4531 17.0933C29.4531 18.216 29.1146 19.2594 28.5344 20.1279L23.9844 27.2651Z" stroke="black" stroke-width="1.3" stroke-miterlimit="10" stroke-linecap="round" stroke-linejoin="round"/>
<path d="M26.1719 17.0938C26.1719 18.3018 25.1924 19.2812 23.9844 19.2812C22.7763 19.2812 21.7969 18.3018 21.7969 17.0938C21.7969 15.8857 22.7763 14.9062 23.9844 14.9062C25.1924 14.9062 26.1719 15.8857 26.1719 17.0938Z" stroke="black" stroke-width="1.3" stroke-miterlimit="10" stroke-linecap="round" stroke-linejoin="round"/>
<path d="M9.10938 19.6089C9.10938 20.2132 8.61992 20.7026 8.01562 20.7026C7.41133 20.7026 6.92188 20.2132 6.92188 19.6089C6.92188 19.0051 7.41133 18.5151 8.01562 18.5151C8.61992 18.5151 9.10938 19.0051 9.10938 19.6089Z" stroke="black" stroke-width="1.3" stroke-miterlimit="10" stroke-linecap="round" stroke-linejoin="round"/>
<path d="M9.10937 19.6094H13.8125C15.0205 19.6094 16 20.5888 16 21.7969C16 23.0049 15.0205 23.9844 13.8125 23.9844H7.25C6.04195 23.9844 5.0625 24.9638 5.0625 26.1719C5.0625 27.3799 6.04195 28.3594 7.25 28.3594H17.6877" stroke="black" stroke-width="1.3" stroke-miterlimit="10" stroke-linecap="round" stroke-linejoin="round"/>
<path d="M17.6406 28.3594H22.8906" stroke="black" stroke-width="1.3" stroke-miterlimit="10" stroke-linecap="round" stroke-linejoin="round"/>
</g>
</svg>
