<svg width="32" height="32" viewBox="0 0 32 32" fill="none" xmlns="http://www.w3.org/2000/svg">
<path d="M7.75732 10.2251V26.2199H21.6591L27.2199 20.6592V6.75732H11.2252" stroke="black" stroke-width="1.1" stroke-miterlimit="22.9256" stroke-linecap="round" stroke-linejoin="round"/>
<path d="M21.6592 25.9419V20.6592H26.9419" stroke="black" stroke-width="1.1" stroke-miterlimit="22.9256" stroke-linecap="round" stroke-linejoin="round"/>
<path d="M10.5376 26.4978V29.0002H30.0002V9.5376H27.4978" stroke="black" stroke-width="1.1" stroke-miterlimit="22.9256" stroke-linecap="round" stroke-linejoin="round"/>
<path d="M6.16361 7.10119C7.64343 6.69135 8.51082 5.15948 8.10098 3.67966C7.69114 2.19984 6.15927 1.33245 4.67945 1.74229C3.19963 2.15213 2.33224 3.68401 2.74208 5.16382C3.15192 6.64364 4.68379 7.51103 6.16361 7.10119Z" stroke="black" stroke-width="1.1" stroke-miterlimit="22.9256" stroke-linecap="round" stroke-linejoin="round"/>
<path d="M8.34463 4.42529C9.82284 4.50114 10.9825 5.72184 10.9825 7.202C10.9825 8.73755 9.73765 9.98238 8.20211 9.98238C6.73729 9.98238 5.52377 8.84592 5.42773 7.38428" stroke="black" stroke-width="1.1" stroke-miterlimit="22.9256" stroke-linecap="round" stroke-linejoin="round"/>
<path d="M10.1934 9.19336L10.9822 9.98221" stroke="black" stroke-width="1.1" stroke-miterlimit="22.9256" stroke-linecap="round" stroke-linejoin="round"/>
<path d="M24.4395 12.7628H10.5376M16.0984 9.98242H24.4395" stroke="black" stroke-width="1.1" stroke-miterlimit="22.9256" stroke-linecap="round" stroke-linejoin="round"/>
<path d="M16.0984 17.8789H10.5376V23.4397H16.0984V17.8789Z" stroke="black" stroke-width="1.1" stroke-miterlimit="22.9256" stroke-linecap="round" stroke-linejoin="round"/>
</svg>
