<svg width="32" height="32" viewBox="0 0 32 32" fill="none" xmlns="http://www.w3.org/2000/svg">
<path d="M9.83105 15.8725L12.2737 13.7173L14.4496 15.893L12.2943 18.3357L9.83105 15.8725Z" fill="black"/>
<mask id="mask0_20204_87678" style="mask-type:luminance" maskUnits="userSpaceOnUse" x="2" y="2" width="28" height="28">
<path d="M2.6665 2.66658H29.3332V29.3333H2.6665V2.66658Z" fill="white"/>
</mask>
<g mask="url(#mask0_20204_87678)">
<path d="M12.8947 14.0973L14.7079 15.9105L6.75085 24.9286C5.97366 25.8094 4.61455 25.8518 3.78397 25.0212C2.95335 24.1906 2.9958 22.8315 3.87658 22.0543L12.8947 14.0973Z" stroke="black" stroke-width="1.3" stroke-miterlimit="10" stroke-linecap="round" stroke-linejoin="round"/>
<path d="M14.3423 28.8123H28.8125V25.6666H14.3423V28.8123Z" stroke="black" stroke-width="1.3" stroke-miterlimit="10" stroke-linecap="round" stroke-linejoin="round"/>
<path d="M15.6006 25.6665H27.5543V24.1811C27.5543 23.2642 26.8109 22.5208 25.894 22.5208H17.2609C16.3439 22.5208 15.6006 23.2642 15.6006 24.1811V25.6665Z" stroke="black" stroke-width="1.3" stroke-miterlimit="10" stroke-linecap="round" stroke-linejoin="round"/>
<path d="M11.9136 10.1699L18.636 16.8923L23.0554 12.4729L16.333 5.75041L11.9136 10.1699Z" stroke="black" stroke-width="1.3" stroke-miterlimit="10" stroke-linecap="round" stroke-linejoin="round"/>
<path d="M9.77725 10.2433C9.20771 9.67373 9.20771 8.7504 9.77725 8.18081L14.344 3.61415C14.9135 3.04462 15.8369 3.04462 16.4064 3.61415C16.9759 4.18363 16.9759 5.10701 16.4064 5.67649L11.8396 10.2433C11.2702 10.8128 10.3468 10.8128 9.77725 10.2433Z" stroke="black" stroke-width="1.3" stroke-miterlimit="10" stroke-linecap="round" stroke-linejoin="round"/>
<path d="M18.5619 19.0284C19.1314 19.5979 20.0548 19.5979 20.6243 19.0284L25.191 14.4617C25.7606 13.8922 25.7606 12.9688 25.191 12.3993C24.6216 11.8298 23.6982 11.8298 23.1286 12.3993L18.5619 16.966C17.9924 17.5356 17.9924 18.4589 18.5619 19.0284Z" stroke="black" stroke-width="1.3" stroke-miterlimit="10" stroke-linecap="round" stroke-linejoin="round"/>
<path d="M12.6383 13.8416L14.9638 16.1671C15.298 16.5013 15.8397 16.5013 16.1738 16.1671L17.042 15.299L13.5064 11.7635L12.6383 12.6317C12.3042 12.9658 12.3042 13.5075 12.6383 13.8416Z" stroke="black" stroke-width="1.3" stroke-miterlimit="10" stroke-linecap="round" stroke-linejoin="round"/>
</g>
</svg>
