<svg width="32" height="32" viewBox="0 0 32 32" fill="none" xmlns="http://www.w3.org/2000/svg">
<path fill-rule="evenodd" clip-rule="evenodd" d="M18.0899 2.6665H24.5287C24.9713 2.6665 25.3335 3.02879 25.3335 3.47135V6.69072C25.3335 7.13323 24.9712 7.49557 24.5287 7.49557H20.9068L18.8947 9.10526V7.49557H18.0898C17.6473 7.49557 17.285 7.13339 17.285 6.69072V3.47135C17.2851 3.02868 17.6472 2.6665 18.0899 2.6665Z" stroke="black" stroke-width="1.06675" stroke-miterlimit="22.9256"/>
<path d="M23.3218 4.27979H19.2976M23.3218 5.88947H20.5048" stroke="black" stroke-width="1.06675" stroke-miterlimit="22.9256"/>
<path d="M11.999 18.1055V28.129" stroke="black" stroke-width="1.06675" stroke-miterlimit="22.9256"/>
<path fill-rule="evenodd" clip-rule="evenodd" d="M14.4159 26.5215C14.8585 26.5215 15.2207 26.8837 15.2207 27.3263V28.1312H8.78201V27.3263C8.78201 26.8837 9.14424 26.5215 9.58685 26.5215H14.4159Z" stroke="black" stroke-width="1.06675" stroke-miterlimit="22.9256"/>
<path d="M7.17098 14.6841H8.98193" stroke="black" stroke-width="1.06675" stroke-miterlimit="22.9256"/>
<path d="M12.8506 7.30811L15.2908 7.91458C16.2985 8.16505 16.8276 9.0485 16.8276 9.77592V10.3504M16.8276 11.1553V15.8927C16.8276 16.446 16.3749 16.8988 15.8216 16.8988H15.0167M15.0167 16.8988L14.4131 26.5199M15.0167 16.8988V10.3505M8.98046 16.8988H8.17562C7.62226 16.8988 7.16956 16.446 7.16956 15.8927V9.77592C7.16956 9.04845 7.69867 8.16505 8.70639 7.91458L11.1466 7.30811M9.40939 23.503L8.98041 16.8988V10.3505M9.5841 26.5199L9.45596 24.3065" stroke="black" stroke-width="1.06675" stroke-miterlimit="22.9256"/>
<path fill-rule="evenodd" clip-rule="evenodd" d="M12.0001 2.6665C10.8934 2.6665 9.98799 3.57195 9.98799 4.67861V5.48346C9.98799 6.59012 10.8934 7.49557 12.0001 7.49557C13.1068 7.49557 14.0122 6.59012 14.0122 5.48346V4.67861C14.0122 3.57195 13.1068 2.6665 12.0001 2.6665Z" stroke="black" stroke-width="1.06675" stroke-miterlimit="22.9256"/>
<path d="M14.0122 5.4869C13.8907 5.19699 13.6042 4.99219 13.2712 4.99219H10.729C10.396 4.99219 10.1095 5.19699 9.98799 5.4869" stroke="black" stroke-width="1.06675" stroke-miterlimit="22.9256"/>
<path d="M15.0167 14.6841H16.8276" stroke="black" stroke-width="1.06675" stroke-miterlimit="22.9256"/>
<path d="M15.0176 15.6899H8.98136" stroke="black" stroke-width="1.06675" stroke-miterlimit="22.9256"/>
</svg>
