<svg width="32" height="32" viewBox="0 0 32 32" fill="none" xmlns="http://www.w3.org/2000/svg">
<path d="M6.70557 14.1412V20.7632" stroke="black" stroke-width="1.2" stroke-miterlimit="10" stroke-linecap="round" stroke-linejoin="round"/>
<path d="M10.4548 16.0097C10.4548 17.0418 9.58147 17.8785 8.54943 17.8785C8.03759 17.8785 6.71846 17.8867 6.71846 17.8867C6.71846 17.8867 6.71021 16.5299 6.71021 16.0097C6.71021 15.5825 6.70557 14.141 6.70557 14.141H8.54943C9.58147 14.141 10.4548 14.9776 10.4548 16.0097Z" stroke="black" stroke-width="1.2" stroke-miterlimit="10" stroke-linecap="round" stroke-linejoin="round"/>
<path d="M18.5561 17.3548C18.5561 19.1254 17.5734 20.5265 16.0144 20.5537C15.4954 20.5628 14.1541 20.5679 14.1541 20.5679C14.1541 20.5679 14.1458 18.2402 14.1458 17.3477C14.1458 16.6147 14.1411 14.1417 14.1411 14.1417H15.9611C17.6712 14.1417 18.5561 15.5843 18.5561 17.3548Z" stroke="black" stroke-width="1.2" stroke-miterlimit="10" stroke-linecap="round" stroke-linejoin="round"/>
<path d="M25.1701 14.0735H22.5059V20.647" stroke="black" stroke-width="1.2" stroke-miterlimit="10" stroke-linecap="round" stroke-linejoin="round"/>
<path d="M22.5059 17.2983H24.9585" stroke="black" stroke-width="1.2" stroke-miterlimit="10" stroke-linecap="round" stroke-linejoin="round"/>
<path d="M5.77588 10.4233V3.74288C5.77588 2.78438 6.56011 2.00016 7.51861 2.00016H19.1191C20.0757 2.00016 20.9903 2.39337 21.6485 3.08762L25.2678 6.90535C25.8817 7.55289 26.2239 8.41113 26.2239 9.30341V10.4233" stroke="black" stroke-width="1.2" stroke-miterlimit="10" stroke-linecap="round" stroke-linejoin="round"/>
<path d="M26.2239 24.3652V28.2573C26.2239 29.2158 25.4396 30 24.4811 30H7.51861C6.56011 30 5.77588 29.2158 5.77588 28.2573V24.3652" stroke="black" stroke-width="1.2" stroke-miterlimit="10" stroke-linecap="round" stroke-linejoin="round"/>
<path d="M27.7344 24.3652H4.26568C3.30718 24.3652 2.52295 23.581 2.52295 22.6225V12.1661C2.52295 11.2076 3.30718 10.4234 4.26568 10.4234H27.7344C28.6929 10.4234 29.4771 11.2076 29.4771 12.1661V22.6225C29.4771 23.581 28.6929 24.3652 27.7344 24.3652Z" stroke="black" stroke-width="1.2" stroke-miterlimit="10" stroke-linecap="round" stroke-linejoin="round"/>
</svg>
