<svg width="817" height="184" viewBox="0 0 817 184" fill="none" xmlns="http://www.w3.org/2000/svg">
<path d="M30.9373 60.3842V104.768C19.6025 100.477 -2.41047 86.5729 0.215594 60.3842L0.467205 58.7095C2.26087 46.7711 9.45529 36.325 19.9696 30.3926L64.8687 5.05948C76.8092 -1.67758 91.4016 -1.68706 103.351 5.03451L148.739 30.5657C161.082 37.509 168.72 50.5699 168.72 64.7319V79.2578L84.3253 30.0891L30.9373 60.3842Z" fill="white"/>
<path d="M137.783 123.172V78.7881C149.118 83.0794 171.131 96.9835 168.505 123.172L168.253 124.847C166.46 136.785 159.265 147.231 148.751 153.164L103.852 178.497C91.9113 185.234 77.3188 185.243 65.3696 178.522L19.9818 152.991C7.63857 146.047 0 132.986 0 118.824V104.299L84.3952 153.467L137.783 123.172Z" fill="white"/>
<path d="M122.448 114.502V70.1006L91.5059 87.3376L91.6657 132.262L122.448 114.502Z" fill="#ABDD05"/>
<path d="M83.6666 47.333L53.3145 65.8378L91.5044 87.3371L122.446 70.1001L83.6666 47.333Z" fill="#C9F625"/>
<path d="M226.931 130.538C212.851 130.538 201.851 124.708 196.791 113.708L213.731 105.238C215.821 109.748 220.001 111.838 226.931 111.838C232.321 111.838 236.391 110.188 236.391 106.668C236.391 102.268 231.991 101.608 225.281 100.618C214.171 98.9683 197.891 94.6783 197.891 76.9683C197.891 63.3283 210.101 52.8783 226.601 52.8783C239.581 52.8783 250.581 58.7083 255.641 69.7083L238.701 78.1783C236.611 74.5483 232.651 71.5783 225.721 71.5783C220.881 71.5783 218.241 73.1183 218.241 76.1983C218.241 80.3783 223.081 81.6983 230.341 82.7983C241.341 84.4483 256.741 88.6283 256.741 106.448C256.741 120.088 243.431 130.538 226.931 130.538ZM267.534 54.5283H287.884V128.778H267.534V54.5283ZM358.474 54.5283V73.2283H337.464V128.778H317.114V73.2283H296.104V54.5283H358.474ZM421.798 128.778H383.188C370.648 128.778 365.588 122.178 365.588 111.728V71.5783C365.588 61.1283 370.648 54.5283 383.188 54.5283H421.248V72.6783H385.938V82.5783H418.718V100.728H385.938V110.628H421.798V128.778ZM454.233 128.668L433.883 128.778V54.5283H462.373C484.373 54.5283 497.243 64.9783 497.243 82.2483C497.243 100.068 485.033 110.628 463.473 110.628H454.233V128.668ZM462.923 73.2283H454.233V91.9283H462.923C472.053 91.9283 476.343 88.5183 476.343 82.2483C476.343 76.4183 471.723 73.2283 462.923 73.2283ZM499.406 128.778L518.546 66.2983C521.296 57.1683 528.996 52.8783 536.696 52.8783C544.396 52.8783 552.096 57.1683 554.846 66.2983L573.986 128.778H553.196L549.786 116.238H523.716L520.196 128.778H499.406ZM535.926 72.2383L528.776 98.0883H544.726L537.686 72.2383C537.466 71.4683 537.246 71.1383 536.806 71.1383C536.366 71.1383 536.146 71.4683 535.926 72.2383ZM613.748 130.428C591.528 130.428 574.588 113.378 574.588 91.7083C574.588 70.0383 591.528 52.9883 613.748 52.9883C626.948 52.9883 639.928 60.0283 645.318 72.2383L628.708 81.4783C625.628 75.9783 621.448 72.2383 612.868 72.2383C602.418 72.2383 595.488 80.1583 595.488 91.7083C595.488 103.258 602.198 111.178 612.868 111.178C621.448 111.178 625.958 107.438 628.708 101.938L645.318 111.178C639.928 123.388 626.948 130.428 613.748 130.428ZM707.549 128.778H668.939C656.399 128.778 651.339 122.178 651.339 111.728V71.5783C651.339 61.1283 656.399 54.5283 668.939 54.5283H706.999V72.6783H671.689V82.5783H704.469V100.728H671.689V110.628H707.549V128.778ZM724.362 129.69C719.878 129.69 716.154 125.966 716.154 121.482C716.154 116.998 719.878 113.274 724.362 113.274C728.846 113.274 732.57 116.998 732.57 121.482C732.57 125.966 728.846 129.69 724.362 129.69ZM739.028 128.778L752.252 85.6103C754.152 79.3023 759.472 76.3383 764.792 76.3383C770.112 76.3383 775.432 79.3023 777.332 85.6103L790.556 128.778H776.192L773.836 120.114H755.824L753.392 128.778H739.028ZM764.26 89.7143L759.32 107.574H770.34L765.476 89.7143C765.324 89.1823 765.172 88.9543 764.868 88.9543C764.564 88.9543 764.412 89.1823 764.26 89.7143ZM796.256 77.4783H810.316V128.778H796.256V77.4783Z" fill="white"/>
</svg>
