<svg width="817" height="184" viewBox="0 0 817 184" fill="none" xmlns="http://www.w3.org/2000/svg">
<path d="M31.0486 60.3852V104.769C19.7139 100.478 -2.29914 86.5739 0.326922 60.3852L0.578533 58.7105C2.3722 46.772 9.56661 36.3259 20.0809 30.3935L64.9801 5.06046C76.9205 -1.6766 91.513 -1.68608 103.462 5.03548L148.85 30.5667C161.193 37.5099 168.832 50.5709 168.832 64.7329V79.2588L84.4366 30.0901L31.0486 60.3852Z" fill="#030712"/>
<path d="M137.894 123.173V78.7891C149.229 83.0804 171.242 96.9844 168.616 123.173L168.365 124.848C166.571 136.786 159.376 147.232 148.862 153.165L103.963 178.498C92.0226 185.235 77.4301 185.244 65.4809 178.523L20.0931 152.992C7.7499 146.048 0.111328 132.987 0.111328 118.825V104.3L84.5065 153.468L137.894 123.173Z" fill="#030712"/>
<path d="M122.559 114.501V70.0996L91.6172 87.3366L91.777 132.261L122.559 114.501Z" fill="#ABDD05"/>
<path d="M83.7779 47.332L53.4258 65.8368L91.6157 87.3361L122.558 70.0991L83.7779 47.332Z" fill="#C9F625"/>
<path d="M227.042 130.539C212.962 130.539 201.962 124.709 196.902 113.709L213.842 105.239C215.932 109.749 220.112 111.839 227.042 111.839C232.432 111.839 236.502 110.189 236.502 106.669C236.502 102.269 232.102 101.609 225.392 100.619C214.282 98.9693 198.002 94.6793 198.002 76.9693C198.002 63.3293 210.212 52.8793 226.712 52.8793C239.692 52.8793 250.692 58.7093 255.752 69.7093L238.812 78.1793C236.722 74.5493 232.762 71.5793 225.832 71.5793C220.992 71.5793 218.352 73.1193 218.352 76.1993C218.352 80.3793 223.192 81.6993 230.452 82.7993C241.452 84.4493 256.852 88.6293 256.852 106.449C256.852 120.089 243.542 130.539 227.042 130.539ZM267.645 54.5293H287.995V128.779H267.645V54.5293ZM358.585 54.5293V73.2293H337.575V128.779H317.225V73.2293H296.215V54.5293H358.585ZM421.91 128.779H383.3C370.76 128.779 365.7 122.179 365.7 111.729V71.5793C365.7 61.1293 370.76 54.5293 383.3 54.5293H421.36V72.6793H386.05V82.5793H418.83V100.729H386.05V110.629H421.91V128.779ZM454.344 128.669L433.994 128.779V54.5293H462.484C484.484 54.5293 497.354 64.9793 497.354 82.2493C497.354 100.069 485.144 110.629 463.584 110.629H454.344V128.669ZM463.034 73.2293H454.344V91.9293H463.034C472.164 91.9293 476.454 88.5193 476.454 82.2493C476.454 76.4193 471.834 73.2293 463.034 73.2293ZM499.517 128.779L518.657 66.2993C521.407 57.1693 529.107 52.8793 536.807 52.8793C544.507 52.8793 552.207 57.1693 554.957 66.2993L574.097 128.779H553.307L549.897 116.239H523.827L520.307 128.779H499.517ZM536.037 72.2393L528.887 98.0893H544.837L537.797 72.2393C537.577 71.4693 537.357 71.1393 536.917 71.1393C536.477 71.1393 536.257 71.4693 536.037 72.2393ZM613.86 130.429C591.64 130.429 574.7 113.379 574.7 91.7093C574.7 70.0393 591.64 52.9893 613.86 52.9893C627.06 52.9893 640.04 60.0293 645.43 72.2393L628.82 81.4793C625.74 75.9793 621.56 72.2393 612.98 72.2393C602.53 72.2393 595.6 80.1593 595.6 91.7093C595.6 103.259 602.31 111.179 612.98 111.179C621.56 111.179 626.07 107.439 628.82 101.939L645.43 111.179C640.04 123.389 627.06 130.429 613.86 130.429ZM707.66 128.779H669.05C656.51 128.779 651.45 122.179 651.45 111.729V71.5793C651.45 61.1293 656.51 54.5293 669.05 54.5293H707.11V72.6793H671.8V82.5793H704.58V100.729H671.8V110.629H707.66V128.779ZM724.473 129.691C719.989 129.691 716.265 125.967 716.265 121.483C716.265 116.999 719.989 113.275 724.473 113.275C728.957 113.275 732.681 116.999 732.681 121.483C732.681 125.967 728.957 129.691 724.473 129.691ZM739.139 128.779L752.363 85.6113C754.263 79.3033 759.583 76.3393 764.903 76.3393C770.223 76.3393 775.543 79.3033 777.443 85.6113L790.667 128.779H776.303L773.947 120.115H755.935L753.503 128.779H739.139ZM764.371 89.7153L759.431 107.575H770.451L765.587 89.7153C765.435 89.1833 765.283 88.9553 764.979 88.9553C764.675 88.9553 764.523 89.1833 764.371 89.7153ZM796.368 77.4793H810.428V128.779H796.368V77.4793Z" fill="#030712"/>
</svg>
