<svg width="675" height="250" viewBox="0 0 675 250" fill="none" xmlns="http://www.w3.org/2000/svg">
<path d="M142.44 239.367L205.78 201.628C218.543 194.023 225.897 180.464 226.449 166.315L226.482 164.384L226.5 152.398C226.5 127.834 207.204 107.921 183.401 107.921V165.639L114.75 206.542L6.05222 141.779C-5.37751 162.209 1.40538 188.332 21.2023 200.128L93.971 243.484C108.371 252.064 125.691 250.699 138.463 241.454C139.809 240.839 141.136 240.144 142.44 239.367Z" fill="#030712"/>
<path d="M84.5603 10.6326L21.2198 48.3718C8.45709 55.976 1.10324 69.5353 0.551086 83.6849L0.518051 85.6153L0.500214 97.6017C0.500214 122.165 19.796 142.078 43.5986 142.078V84.3603L112.25 43.457L220.948 108.22C232.378 87.7906 225.595 61.6671 205.798 49.8719L133.029 6.51556C118.629 -2.06433 101.309 -0.699402 88.5373 8.54546C87.1914 9.16069 85.8639 9.85591 84.5603 10.6326Z" fill="#030712"/>
<path d="M129.313 115.985L82.5 88.7774L120.961 65.4238L166.675 93.7655V149.995L129.313 170.628V115.985Z" fill="#C9F625"/>
<path d="M291.42 115.694C277.871 115.694 267.286 110.083 262.417 99.4982L278.718 91.3475C280.729 95.6875 284.751 97.6987 291.42 97.6987C296.607 97.6987 300.524 96.1109 300.524 92.7236C300.524 88.4895 296.289 87.8544 289.832 86.9017C279.141 85.3139 263.475 81.1856 263.475 64.1433C263.475 51.0176 275.225 40.9616 291.103 40.9616C303.593 40.9616 314.179 46.5718 319.048 57.157L302.746 65.3077C300.735 61.8146 296.925 58.9565 290.256 58.9565C285.598 58.9565 283.058 60.4385 283.058 63.4024C283.058 67.4248 287.715 68.695 294.702 69.7535C305.287 71.3413 320.106 75.3637 320.106 92.5119C320.106 105.638 307.298 115.694 291.42 115.694ZM330.492 42.5494H350.075V114H330.492V42.5494ZM418.004 42.5494V60.5443H397.786V114H378.203V60.5443H357.985V42.5494H418.004ZM478.941 114H441.787C429.719 114 424.85 107.649 424.85 97.5928V58.9565C424.85 48.9005 429.719 42.5494 441.787 42.5494H478.412V60.0151H444.433V69.5418H475.977V87.0075H444.433V96.5343H478.941V114ZM294.913 208.694C285.387 208.694 279.988 203.824 277.024 194.086L259.029 135.549H279.035L294.596 188.264C294.702 188.582 294.808 188.687 295.019 188.687C295.231 188.687 295.337 188.582 295.443 188.264L310.791 135.549H330.797L312.802 194.086C309.839 203.824 304.44 208.694 294.913 208.694ZM337.728 135.549H357.311V207H337.728V135.549ZM425.134 207H387.979C375.912 207 371.043 200.649 371.043 190.593V151.957C371.043 141.901 375.912 135.549 387.979 135.549H424.605V153.015H390.626V162.542H422.17V180.008H390.626V189.534H425.134V207ZM442.055 195.356L429.353 135.549H448.936L458.145 184.453L466.19 148.887C468.519 138.407 473.494 133.962 481.115 133.962C488.736 133.962 493.712 138.407 496.04 148.887L504.085 184.453L513.294 135.549H532.877L520.175 195.356C518.375 203.93 512.659 208.694 504.932 208.694C497.946 208.694 491.7 204.036 489.901 196.203L481.115 157.567L472.329 196.203C470.53 204.036 464.284 208.694 457.298 208.694C449.571 208.694 443.855 203.93 442.055 195.356ZM545.393 208.27C539.148 208.27 533.961 203.083 533.961 196.838C533.961 190.593 539.148 185.406 545.393 185.406C551.639 185.406 556.825 190.593 556.825 196.838C556.825 203.083 551.639 208.27 545.393 208.27ZM565.82 207L584.239 146.876C586.885 138.09 594.295 133.962 601.705 133.962C609.114 133.962 616.524 138.09 619.17 146.876L637.589 207H617.582L614.301 194.933H589.214L585.827 207H565.82ZM600.964 152.592L594.083 177.467H609.432L602.657 152.592C602.446 151.851 602.234 151.533 601.81 151.533C601.387 151.533 601.175 151.851 600.964 152.592ZM645.528 135.549H665.111V207H645.528V135.549Z" fill="#030712"/>
</svg>
