<svg width="586" height="800" viewBox="0 0 586 800" fill="none" xmlns="http://www.w3.org/2000/svg">
<rect width="586" height="800" rx="24" fill="#030712"/>
<path d="M234.845 235.311V284.166C222.368 279.443 198.138 264.138 201.028 235.311L201.305 233.468C203.28 220.326 211.199 208.828 222.772 202.298L272.194 174.413C285.338 166.997 301.4 166.987 314.553 174.385L364.513 202.489C378.1 210.131 386.508 224.508 386.508 240.097V256.086L293.611 201.964L234.845 235.311Z" fill="white"/>
<path d="M352.454 304.425V255.57C364.93 260.293 389.161 275.598 386.27 304.425L385.993 306.268C384.019 319.409 376.1 330.908 364.526 337.438L315.104 365.323C301.961 372.739 285.898 372.749 272.745 365.35L222.785 337.247C209.199 329.604 200.791 315.228 200.791 299.639V283.65L293.688 337.772L352.454 304.425Z" fill="white"/>
<path d="M335.574 294.877V246.003L301.515 264.976L301.691 314.426L335.574 294.877Z" fill="#ABDD05"/>
<path d="M292.887 220.942L259.477 241.311L301.514 264.976L335.573 246.003L292.887 220.942Z" fill="#C9F625"/>
<path d="M137.876 522.301C128.219 522.301 120.675 518.302 117.205 510.758L128.823 504.949C130.256 508.043 133.123 509.476 137.876 509.476C141.572 509.476 144.364 508.344 144.364 505.93C144.364 502.913 141.346 502.46 136.744 501.781C129.125 500.649 117.959 497.707 117.959 485.561C117.959 476.207 126.333 469.04 137.649 469.04C146.551 469.04 154.095 473.038 157.566 480.582L145.948 486.391C144.514 483.901 141.799 481.865 137.046 481.865C133.726 481.865 131.916 482.921 131.916 485.033C131.916 487.9 135.235 488.805 140.214 489.56C147.758 490.691 158.32 493.558 158.32 505.779C158.32 515.134 149.192 522.301 137.876 522.301ZM165.722 470.171H179.679V521.094H165.722V470.171ZM228.091 470.171V482.996H213.682V521.094H199.725V482.996H185.316V470.171H228.091ZM271.521 521.094H245.041C236.441 521.094 232.97 516.567 232.97 509.4V481.865C232.97 474.698 236.441 470.171 245.041 470.171H271.143V482.619H246.927V489.409H269.408V501.856H246.927V508.646H271.521V521.094ZM293.765 521.018L279.808 521.094V470.171H299.348C314.436 470.171 323.262 477.338 323.262 489.182C323.262 501.404 314.888 508.646 300.102 508.646H293.765V521.018ZM299.725 482.996H293.765V495.821H299.725C305.986 495.821 308.929 493.482 308.929 489.182C308.929 485.184 305.76 482.996 299.725 482.996ZM324.746 521.094L337.872 478.243C339.758 471.982 345.039 469.04 350.32 469.04C355.601 469.04 360.882 471.982 362.768 478.243L375.895 521.094H361.636L359.298 512.494H341.418L339.004 521.094H324.746ZM349.792 482.317L344.888 500.046H355.827L350.999 482.317C350.848 481.789 350.697 481.563 350.396 481.563C350.094 481.563 349.943 481.789 349.792 482.317ZM403.165 522.225C387.926 522.225 376.308 510.532 376.308 495.67C376.308 480.808 387.926 469.115 403.165 469.115C412.217 469.115 421.119 473.943 424.816 482.317L413.425 488.654C411.312 484.882 408.445 482.317 402.561 482.317C395.394 482.317 390.641 487.749 390.641 495.67C390.641 503.592 395.243 509.023 402.561 509.023C408.445 509.023 411.539 506.458 413.425 502.686L424.816 509.023C421.119 517.397 412.217 522.225 403.165 522.225ZM467.495 521.094H441.016C432.416 521.094 428.945 516.567 428.945 509.4V481.865C428.945 474.698 432.416 470.171 441.016 470.171H467.118V482.619H442.902V489.409H465.383V501.856H442.902V508.646H467.495V521.094Z" fill="white"/>
<rect x="398.667" y="522" width="72.9196" height="43.1565" rx="14.1375" fill="#DFFF60"/>
<path d="M419.405 553.934C417.655 553.934 416.203 552.481 416.203 550.731C416.203 548.982 417.655 547.529 419.405 547.529C421.154 547.529 422.607 548.982 422.607 550.731C422.607 552.481 421.154 553.934 419.405 553.934ZM425.127 553.578L430.286 536.736C431.028 534.275 433.103 533.118 435.179 533.118C437.254 533.118 439.33 534.275 440.071 536.736L445.231 553.578H439.627L438.707 550.198H431.68L430.731 553.578H425.127ZM434.971 538.337L433.044 545.305H437.343L435.446 538.337C435.386 538.129 435.327 538.041 435.208 538.041C435.09 538.041 435.031 538.129 434.971 538.337ZM447.455 533.563H452.94V553.578H447.455V533.563Z" fill="#030712"/>
</svg>
